HIERARCHY
ROOT Hips
{
  OFFSET 53.007 93.9298 13.5343
  CHANNELS 6 Xposition Yposition Zposition Zrotation Xrotation Yrotation
  JOINT spine
  {
    OFFSET 0 7.80059 0.448573
    CHANNELS 3 Zrotation Xrotation Yrotation
    JOINT spine1
    {
      OFFSET 0 10.1364 0
      CHANNELS 3 Zrotation Xrotation Yrotation
      JOINT spine2
      {
        OFFSET 0 9.71251 0
        CHANNELS 3 Zrotation Xrotation Yrotation
        JOINT Neck
        {
          OFFSET 0 24.9361 1.18887
          CHANNELS 3 Zrotation Xrotation Yrotation
          JOINT Head
          {
            OFFSET 0 7.53384 0
            CHANNELS 3 Zrotation Xrotation Yrotation
            End Site
            {
              OFFSET 0 18.2361 -6.01402
            }
          }
        }
        JOINT RightShoulder
        {
          OFFSET -4.08965 10.4888 -0.569457
          CHANNELS 3 Zrotation Xrotation Yrotation
          JOINT RightArm
          {
            OFFSET 0 13.757 0
            CHANNELS 3 Zrotation Xrotation Yrotation
            JOINT RightArmRoll
            {
              OFFSET 0 6.94478 0
              CHANNELS 3 Zrotation Xrotation Yrotation
              JOINT RightForeArm
              {
                OFFSET 0 20.2277 0
                CHANNELS 3 Zrotation Xrotation Yrotation
                JOINT RightForeArmRoll
                {
                  OFFSET 0 7.79312 0
                  CHANNELS 3 Zrotation Xrotation Yrotation
                  JOINT RightHand
                  {
                    OFFSET 0 15.6391 0
                    CHANNELS 3 Zrotation Xrotation Yrotation
                    End Site
                    {
                      OFFSET 0 0 0
                    }
                  }
                }
              }
            }
          }
        }
        JOINT LeftShoulder
        {
          OFFSET 4.08965 10.4888 -0.569457
          CHANNELS 3 Zrotation Xrotation Yrotation
          JOINT LeftArm
          {
            OFFSET 0 13.757 0
            CHANNELS 3 Zrotation Xrotation Yrotation
            JOINT LeftArmRoll
            {
              OFFSET 0 6.94478 0
              CHANNELS 3 Zrotation Xrotation Yrotation
              JOINT LeftForeArm
              {
                OFFSET 0 20.2277 0
                CHANNELS 3 Zrotation Xrotation Yrotation
                JOINT LeftForeArmRoll
                {
                  OFFSET 0 7.79312 0
                  CHANNELS 3 Zrotation Xrotation Yrotation
                  JOINT LeftHand
                  {
                    OFFSET 0 15.6391 0
                    CHANNELS 3 Zrotation Xrotation Yrotation
                    End Site
                    {
                      OFFSET 0 0 0
                    }
                  }
                }
              }
            }
          }
        }
      }
    }
  }
  JOINT RightUpLeg
  {
    OFFSET -6.91416 -1.26788 -1.06358
    CHANNELS 3 Zrotation Xrotation Yrotation
    JOINT RightUpLegRoll
    {
      OFFSET 0 18.3378 0
      CHANNELS 3 Zrotation Xrotation Yrotation
      JOINT RightLeg
      {
        OFFSET 0 -22.7085 0
        CHANNELS 3 Zrotation Xrotation Yrotation
        JOINT RightLegRoll
        {
          OFFSET 0 22.7828 0
          CHANNELS 3 Zrotation Xrotation Yrotation
          JOINT RightFoot
          {
            OFFSET 0 18.9629 0
            CHANNELS 3 Zrotation Xrotation Yrotation
            JOINT RightToeBase
            {
              OFFSET 0 15.852 0
              CHANNELS 3 Zrotation Xrotation Yrotation
              End Site
              {
                OFFSET 0.00671906 7.67701 -0.884892
              }
            }
          }
        }
      }
    }
  }
  JOINT LeftUpLeg
  {
    OFFSET 6.91416 -1.26788 -1.06358
    CHANNELS 3 Zrotation Xrotation Yrotation
    JOINT LeftUpLegRoll
    {
      OFFSET 0 18.3379 0
      CHANNELS 3 Zrotation Xrotation Yrotation
      JOINT LeftLeg
      {
        OFFSET 0 22.7084 0
        CHANNELS 3 Zrotation Xrotation Yrotation
        JOINT LeftLegRoll
        {
          OFFSET 0 22.9934 0
          CHANNELS 3 Zrotation Xrotation Yrotation
          JOINT LeftFoot
          {
            OFFSET 0 18.7522 0
            CHANNELS 3 Zrotation Xrotation Yrotation
            JOINT LeftToeBase
            {
              OFFSET 0 15.852 0
              CHANNELS 3 Zrotation Xrotation Yrotation
              End Site
              {
                OFFSET -0.030112 7.67701 -0.884892
              }
            }
          }
        }
      }
    }
  }
}
MOTION
Frames: 13
Frame Time: 0.00208333
53.2647 93.957 14.6401 0.249459 -7.24575 0.137792 -0.349843 -2.07538 0.294609 -0.689583 -0.149912 0.628338 -0.697329 1.49505 0.640033 -1.24551 39.2066 -0.0863555 6.08884 -19.3751 0.961553 24.6241 -14.1895 -10.9573 0.815733 44.2845 85.7137 -2.22639e-014 -1.19271e-014 1.27222e-014 9.78585 76.7927 -6.42672 -1.94856e-006 -3.60454e-006 -3 8.02887 -4.95142 0.697697 -24.1916 -13.3918 10.0446 -13.8074 42.7566 -83.9129 3.18055e-015 -1.11319e-014 -3.18055e-015 12.4486 74.5721 -15.855 2.59173e-006 1.72266e-006 3 -8.02961 -4.95144 -0.697668 174.119 -2.69852 1.25375 180 7.01577e-015 179.064 -179.301 13.3411 178.914 2.08891e-006 -4.47415e-006 0.138868 -17.9425 71.8728 22.9402 8.13662 25.2345 -3.4852 -177.945 -7.03834 5.7531 4.54188e-006 -4.6773e-006 -1.39512 -4.1166 -9.27275 -0.0983676 -1.37764e-006 -5.90568e-006 -0.176191 23.8434 72.388 -24.207 -8.13649 25.2327 3.48774 
53.2562 93.9556 14.6352 0.244751 -7.22521 0.133278 -0.34971 -2.07698 0.294509 -0.688685 -0.153101 0.62667 -0.69641 1.49187 0.638344 -1.2756 39.1835 -0.0625514 6.13791 -19.379 0.984275 24.645 -14.1901 -10.9565 0.946244 44.1969 85.8105 -2.8625e-014 5.1684e-015 9.54166e-015 9.42523 76.4027 -6.06933 -1.94856e-006 -3.60454e-006 -3 8.02887 -4.95142 0.697697 -24.2119 -13.4037 10.0575 -14.0136 42.6528 -83.784 -6.36111e-015 6.75868e-015 3.18055e-015 12.4587 74.1754 -15.7861 2.59173e-006 1.72266e-006 3 -8.02961 -4.95144 -0.697668 174.128 -2.67739 1.2452 180 7.01577e-015 179.064 -179.298 13.338 178.913 2.08891e-006 -4.47415e-006 0.138947 -17.9407 71.87 22.9394 8.13662 25.2345 -3.4852 -177.939 -7.01304 5.75184 4.54188e-006 -4.6773e-006 -1.39461 -4.11637 -9.28075 -0.0985856 -1.37764e-006 -5.90568e-006 -0.176114 23.8438 72.3912 -24.2105 -8.13649 25.2327 3.48774 
53.2557 93.9586 14.6286 0.239681 -7.20393 0.127989 -0.349576 -2.0789 0.294357 -0.687727 -0.156919 0.624726 -0.695429 1.48805 0.636376 -1.31033 39.1622 -0.0365125 6.19084 -19.3831 1.008 24.6674 -14.1899 -10.9544 1.0823 44.1087 85.9052 -6.36111e-015 -1.03368e-014 3.18055e-015 9.07426 76.0057 -5.72304 -1.94856e-006 -3.60454e-006 -3 8.02887 -4.95142 0.697697 -24.2316 -13.4156 10.0704 -14.2267 42.5468 -83.649 3.18055e-014 -7.55382e-015 -1.59028e-014 12.4728 73.7716 -15.7193 2.59173e-006 1.72266e-006 3 -8.02961 -4.95144 -0.697668 174.137 -2.65518 1.23625 180 7.01577e-015 179.064 -179.296 13.3353 178.913 2.0889e-006 -4.47415e-006 0.139027 -17.939 71.8673 22.9389 8.13662 25.2345 -3.4852 -177.934 -6.98666 5.75079 4.54188e-006 -4.6773e-006 -1.39407 -4.11587 -9.28995 -0.098807 -1.37764e-006 -5.90568e-006 -0.176035 23.845 72.3953 -24.215 -8.13649 25.2327 3.48774 
53.2537 93.9563 14.6283 0.234308 -7.182 0.122039 -0.349435 -2.08107 0.294158 -0.686714 -0.161255 0.622564 -0.694391 1.48371 0.634188 -1.34866 39.1422 -0.00871552 6.24669 -19.387 1.03249 24.6912 -14.1889 -10.9513 1.22373 44.0197 85.9972 -9.54166e-015 -3.18055e-015 3.18055e-015 8.73292 75.6022 -5.38792 -1.94856e-006 -3.60454e-006 -3 8.02887 -4.95142 0.697697 -24.2508 -13.4275 10.0832 -14.4454 42.4389 -83.5091 -2.538e-031 -9.14409e-015 -1.59028e-015 12.4905 73.3611 -15.654 2.59173e-006 1.72266e-006 3 -8.02961 -4.95144 -0.697668 174.146 -2.63207 1.22699 180 7.01577e-015 179.064 -179.293 13.3328 178.913 2.08891e-006 -4.47415e-006 0.139105 -17.9373 71.8645 22.9385 8.13662 25.2345 -3.4852 -177.928 -6.95933 5.74991 4.54188e-006 -4.6773e-006 -1.39349 -4.11514 -9.30013 -0.0990288 -1.37764e-006 -5.90568e-006 -0.175957 23.8468 72.4 -24.2203 -8.13649 25.2327 3.48774 
53.2452 93.9582 14.6286 0.22869 -7.1595 0.115537 -0.349279 -2.08344 0.29392 -0.685653 -0.165998 0.620241 -0.693301 1.47897 0.631837 -1.38955 39.123 0.0203623 6.30449 -19.3906 1.05751 24.7165 -14.1872 -10.9474 1.37036 43.9299 86.086 -2.8625e-014 -1.78906e-014 1.11319e-014 8.40109 75.1927 -5.0639 -1.94856e-006 -3.60454e-006 -3 8.02887 -4.95142 0.697697 -24.2699 -13.4394 10.0962 -14.6684 42.3296 -83.3653 6.36111e-015 -8.74653e-015 -7.95139e-015 12.511 72.9442 -15.5897 2.59173e-006 1.72266e-006 3 -8.02961 -4.95144 -0.697668 174.156 -2.60825 1.2175 180 7.01577e-015 179.063 -179.29 13.3304 178.912 2.0889e-006 -4.47415e-006 0.139179 -17.9354 71.8618 22.9382 8.13662 25.2345 -3.4852 -177.922 -6.93121 5.74916 4.54188e-006 -4.6773e-006 -1.39289 -4.11425 -9.31108 -0.0992481 -1.37764e-006 -5.90568e-006 -0.175879 23.8491 72.4052 -24.2262 -8.13649 25.2327 3.48774 
53.2546 93.9571 14.6279 0.222884 -7.13655 0.108596 -0.349101 -2.08597 0.293649 -0.684546 -0.171036 0.617814 -0.692165 1.47393 0.629381 -1.43196 39.104 0.0502436 6.36329 -19.3935 1.08283 24.7431 -14.1851 -10.9428 1.52201 43.8391 86.171 3.97252e-031 -7.15625e-015 3.18055e-015 8.07859 74.778 -4.75089 -1.94856e-006 -3.60454e-006 -3 8.02887 -4.95142 0.697697 -24.2889 -13.4515 10.1093 -14.8944 42.2193 -83.2189 1.90833e-014 -1.78906e-014 -7.95139e-015 12.534 72.5215 -15.5259 2.59173e-006 1.72266e-006 3 -8.02961 -4.95144 -0.697668 174.166 -2.58389 1.20786 180 7.01577e-015 179.063 -179.287 13.3281 178.912 2.08891e-006 -4.47415e-006 0.139246 -17.9334 71.859 22.9379 8.13662 25.2345 -3.4852 -177.916 -6.90244 5.74852 4.54188e-006 -4.6773e-006 -1.39228 -4.11323 -9.32261 -0.099462 -1.37764e-006 -5.90568e-006 -0.175803 23.8517 72.4108 -24.2326 -8.13649 25.2327 3.48774 
53.2382 93.9578 14.619 0.216948 -7.11322 0.101325 -0.348895 -2.08858 0.29335 -0.683401 -0.176258 0.61534 -0.690989 1.46871 0.626876 -1.47485 39.0846 0.0804506 6.42212 -19.3957 1.10821 24.771 -14.1828 -10.9378 1.67845 43.7474 86.2519 -2.22639e-014 6.36111e-015 7.95139e-015 7.76516 74.3585 -4.4487 -1.94856e-006 -3.60454e-006 -3 8.02887 -4.95142 0.697697 -24.3082 -13.4639 10.1227 -15.1222 42.1084 -83.0707 1.59028e-014 -1.03368e-014 -7.95139e-015 12.559 72.0934 -15.4622 2.59173e-006 1.72266e-006 3 -8.02961 -4.95144 -0.697668 174.176 -2.55916 1.19814 180 7.01577e-015 179.063 -179.284 13.3255 178.911 2.0889e-006 -4.47415e-006 0.139306 -17.9311 71.8562 22.9373 8.13662 25.2345 -3.4852 -177.91 -6.87316 5.74795 4.54188e-006 -4.6773e-006 -1.39165 -4.11213 -9.33449 -0.0996677 -1.37764e-006 -5.90568e-006 -0.175729 23.8547 72.4166 -24.2393 -8.13649 25.2327 3.48774 
53.2228 93.957 14.6155 0.210939 -7.08961 0.0938372 -0.348653 -2.09124 0.293032 -0.68222 -0.181553 0.612876 -0.689778 1.46341 0.62438 -1.51718 39.0642 0.110505 6.48003 -19.3968 1.1334 24.8002 -14.1802 -10.9326 1.83953 43.6547 86.3281 -1.27222e-014 -3.97569e-016 1.59028e-015 7.46053 73.9348 -4.15713 -1.94856e-006 -3.60454e-006 -3 8.02887 -4.95142 0.697697 -24.3278 -13.4765 10.1364 -15.3505 41.9973 -82.9218 2.8625e-014 -7.55382e-015 -1.11319e-014 12.5856 71.6603 -15.3982 2.59173e-006 1.72266e-006 3 -8.02961 -4.95144 -0.697668 174.186 -2.53424 1.18842 180 7.01577e-015 179.062 -179.281 13.3228 178.911 2.08891e-006 -4.47415e-006 0.139354 -17.9285 71.8531 22.9365 8.13662 25.2345 -3.4852 -177.904 -6.84353 5.7474 4.54188e-006 -4.6773e-006 -1.39102 -4.11102 -9.34653 -0.0998622 -1.37764e-006 -5.90568e-006 -0.175659 23.8577 72.4224 -24.2462 -8.13649 25.2327 3.48774 
53.2163 93.9595 14.6126 0.204916 -7.06582 0.0862424 -0.348368 -2.09387 0.292699 -0.68101 -0.18681 0.610478 -0.688538 1.45816 0.621951 -1.55791 39.0424 0.139929 6.53606 -19.3966 1.15818 24.8306 -14.1778 -10.9272 2.005 43.5608 86.3991 -3.18055e-015 -1.59028e-015 -1.59028e-015 7.16436 73.5075 -3.87593 -1.94856e-006 -3.60454e-006 -3 8.02887 -4.95142 0.697697 -24.3481 -13.4895 10.1504 -15.578 41.8866 -82.7733 1.90833e-014 7.55382e-015 -6.36111e-015 12.6133 71.2226 -15.3336 2.59173e-006 1.72266e-006 3 -8.02961 -4.95144 -0.697668 174.197 -2.50931 1.17878 180 7.01577e-015 179.062 -179.278 13.3196 178.911 2.0889e-006 -4.47415e-006 0.13939 -17.9256 71.8499 22.9352 8.13662 25.2345 -3.4852 -177.898 -6.81369 5.74686 4.54188e-006 -4.6773e-006 -1.39039 -4.10994 -9.35851 -0.100043 -1.37764e-006 -5.90568e-006 -0.175593 23.8608 72.4282 -24.2529 -8.13649 25.2327 3.48774 
53.2138 93.9589 14.6091 0.198934 -7.04194 0.0786521 -0.348033 -2.09643 0.292359 -0.679774 -0.191918 0.608205 -0.687274 1.45305 0.619646 -1.59598 39.0185 0.168242 6.58924 -19.3949 1.18231 24.8622 -14.1755 -10.922 2.17469 43.4658 86.4645 -3.49861e-014 -1.63003e-014 1.43125e-014 6.8763 73.0772 -3.60481 -1.94856e-006 -3.60454e-006 -3 8.02887 -4.95142 0.697697 -24.3693 -13.5029 10.1649 -15.8035 41.7766 -82.626 1.59028e-014 -8.34896e-015 -1.27222e-014 12.6419 70.7808 -15.268 2.59173e-006 1.72266e-006 3 -8.02961 -4.95144 -0.697668 174.207 -2.48454 1.1693 180 7.01577e-015 179.062 -179.275 13.3158 178.911 2.08891e-006 -4.47415e-006 0.139411 -17.9221 71.8463 22.9334 8.13662 25.2345 -3.4852 -177.892 -6.78379 5.74628 4.54188e-006 -4.6773e-006 -1.38976 -4.10893 -9.37022 -0.100206 -1.37764e-006 -5.90568e-006 -0.175533 23.8637 72.4338 -24.2595 -8.13649 25.2327 3.48774 
53.2193 93.9577 14.6109 0.193051 -7.01805 0.0711772 -0.347641 -2.09886 0.292017 -0.678518 -0.196765 0.606112 -0.685992 1.4482 0.617522 -1.63037 38.9921 0.194967 6.63863 -19.3915 1.20555 24.895 -14.1735 -10.9171 2.34838 43.3695 86.5238 -3.18055e-015 1.19271e-015 1.59028e-015 6.59597 72.6444 -3.34349 -1.94856e-006 -3.60454e-006 -3 8.02887 -4.95142 0.697697 -24.3915 -13.5169 10.1799 -16.0258 41.6679 -82.4811 3.18055e-015 -2.78299e-015 -0 12.6709 70.3353 -15.2011 2.59173e-006 1.72266e-006 3 -8.02961 -4.95144 -0.697668 174.216 -2.46012 1.16005 180 7.01577e-015 179.062 -179.273 13.3114 178.91 2.0889e-006 -4.47415e-006 0.139414 -17.9181 71.8425 22.9309 8.13662 25.2345 -3.4852 -177.886 -6.75397 5.74563 4.54188e-006 -4.6773e-006 -1.38916 -4.10806 -9.38147 -0.10035 -1.37764e-006 -5.90568e-006 -0.175479 23.8664 72.4389 -24.2656 -8.13649 25.2327 3.48774 
53.211 93.9581 14.6058 0.187323 -6.99426 0.0639286 -0.347184 -2.1011 0.291681 -0.677246 -0.201241 0.604258 -0.684697 1.44372 0.615638 -1.66003 38.9624 0.219624 6.68325 -19.3862 1.22767 24.9289 -14.172 -10.9127 2.52586 43.2719 86.5765 6.36111e-015 -1.51076e-014 -0 6.32298 72.2098 -3.09165 -1.94856e-006 -3.60454e-006 -3 8.02887 -4.95142 0.697697 -24.4149 -13.5314 10.1955 -16.2438 41.5608 -82.3393 -9.54166e-015 1.74931e-014 4.77083e-015 12.7001 69.8866 -15.1325 2.59173e-006 1.72266e-006 3 -8.02961 -4.95144 -0.697668 174.226 -2.43621 1.15111 180 7.01577e-015 179.062 -179.271 13.3061 178.91 2.08891e-006 -4.47415e-006 0.139398 -17.9135 71.8384 22.9276 8.13662 25.2345 -3.4852 -177.88 -6.72438 5.74488 4.54188e-006 -4.6773e-006 -1.38857 -4.10736 -9.39203 -0.100471 -1.37764e-006 -5.90568e-006 -0.175431 23.8687 72.4436 -24.2711 -8.13649 25.2327 3.48774 
53.2158 93.9596 14.6017 0.181807 -6.97066 0.0570175 -0.346656 -2.1031 0.291357 -0.675963 -0.205233 0.602698 -0.683395 1.43973 0.61405 -1.6839 38.9291 0.241735 6.72215 -19.3786 1.24842 24.9639 -14.1712 -10.909 2.7069 43.1729 86.6221 9.54166e-015 -1.59028e-015 3.18055e-015 6.05692 71.7739 -2.84897 -1.94856e-006 -3.60454e-006 -3 8.02887 -4.95142 0.697697 -24.4398 -13.5466 10.2117 -16.4562 41.456 -82.2016 1.59028e-014 -3.18055e-015 -1.27222e-014 12.7292 69.435 -15.0621 2.59173e-006 1.72266e-006 3 -8.02961 -4.95144 -0.697668 174.235 -2.41299 1.14257 180 7.01577e-015 179.062 -179.27 13.2999 178.91 2.0889e-006 -4.47415e-006 0.13936 -17.9082 71.8338 22.9234 8.13662 25.2345 -3.4852 -177.874 -6.69517 5.74398 4.54188e-006 -4.6773e-006 -1.38801 -4.1069 -9.4017 -0.100566 -1.37764e-006 -5.90568e-006 -0.175392 23.8706 72.4476 -24.2759 -8.13649 25.2327 3.48774 
